<svg width="96" height="34" viewBox="0 0 96 34" fill="none" xmlns="http://www.w3.org/2000/svg">
<path d="M20.352 7.2C20.352 8.56 19.872 9.736 18.912 10.728C17.952 11.704 16.552 12.408 14.712 12.84C15.704 13.112 16.456 13.56 16.968 14.184C17.48 14.792 17.736 15.496 17.736 16.296C17.736 17.56 17.336 18.656 16.536 19.584C15.752 20.512 14.6 21.232 13.08 21.744C11.56 22.24 9.728 22.488 7.584 22.488C6.784 22.488 6.144 22.464 5.664 22.416C5.648 22.864 5.456 23.2 5.088 23.424C4.72 23.648 4.248 23.76 3.672 23.76C3.096 23.76 2.696 23.632 2.472 23.376C2.264 23.12 2.176 22.744 2.208 22.248C2.352 20.008 2.632 17.664 3.048 15.216C3.464 12.752 3.992 10.376 4.632 8.088C4.744 7.688 4.968 7.408 5.304 7.248C5.64 7.088 6.08 7.008 6.624 7.008C7.6 7.008 8.088 7.28 8.088 7.824C8.088 8.048 8.04 8.304 7.944 8.592C7.528 9.84 7.112 11.536 6.696 13.68C6.28 15.808 5.984 17.84 5.808 19.776C6.576 19.84 7.2 19.872 7.68 19.872C9.92 19.872 11.56 19.552 12.6 18.912C13.656 18.256 14.184 17.424 14.184 16.416C14.184 15.712 13.88 15.12 13.272 14.64C12.68 14.16 11.68 13.896 10.272 13.848C9.952 13.832 9.728 13.752 9.6 13.608C9.472 13.464 9.408 13.232 9.408 12.912C9.408 12.448 9.504 12.072 9.696 11.784C9.888 11.496 10.24 11.344 10.752 11.328C11.888 11.296 12.912 11.128 13.824 10.824C14.752 10.52 15.48 10.096 16.008 9.552C16.536 8.992 16.8 8.344 16.8 7.608C16.8 6.68 16.344 5.952 15.432 5.424C14.52 4.88 13.12 4.608 11.232 4.608C9.52 4.608 7.864 4.832 6.264 5.28C4.664 5.712 3.304 6.264 2.184 6.936C1.672 7.24 1.24 7.392 0.888 7.392C0.6 7.392 0.376 7.296 0.216 7.104C0.072 6.896 0 6.64 0 6.336C0 5.936 0.08 5.592 0.24 5.304C0.416 5.016 0.824 4.688 1.464 4.32C2.808 3.552 4.384 2.952 6.192 2.52C8 2.088 9.848 1.872 11.736 1.872C14.632 1.872 16.792 2.36 18.216 3.336C19.64 4.312 20.352 5.6 20.352 7.2Z" fill="#919191"/>
<path d="M22.5028 22.68C21.7828 22.68 21.1908 22.352 20.7268 21.696C20.2788 21.024 20.0548 20.192 20.0548 19.2C20.0548 18 20.1348 16.904 20.2948 15.912C20.4548 14.904 20.7188 13.84 21.0868 12.72C21.2468 12.24 21.4708 11.896 21.7588 11.688C22.0468 11.48 22.5028 11.376 23.1268 11.376C23.4788 11.376 23.7188 11.432 23.8468 11.544C23.9908 11.656 24.0628 11.824 24.0628 12.048C24.0628 12.176 23.9748 12.608 23.7988 13.344C23.6388 13.936 23.5108 14.472 23.4148 14.952C23.0948 16.632 22.9348 17.752 22.9348 18.312C22.9348 18.648 22.9748 18.888 23.0548 19.032C23.1348 19.16 23.2628 19.224 23.4388 19.224C23.6788 19.224 23.9748 18.984 24.3268 18.504C24.6948 18.024 25.0788 17.296 25.4788 16.32C25.8948 15.344 26.2948 14.144 26.6788 12.72C26.8068 12.24 26.9988 11.896 27.2548 11.688C27.5268 11.48 27.9268 11.376 28.4548 11.376C28.8228 11.376 29.0788 11.424 29.2228 11.52C29.3668 11.6 29.4388 11.76 29.4388 12C29.4388 12.4 29.2388 13.496 28.8388 15.288C28.3908 17.336 28.1668 18.6 28.1668 19.08C28.1668 19.384 28.2308 19.624 28.3588 19.8C28.4868 19.96 28.6548 20.04 28.8628 20.04C29.1828 20.04 29.5588 19.848 29.9908 19.464C30.4388 19.064 31.0308 18.424 31.7668 17.544C31.9588 17.32 32.1748 17.208 32.4148 17.208C32.6228 17.208 32.7828 17.304 32.8948 17.496C33.0228 17.688 33.0868 17.952 33.0868 18.288C33.0868 18.928 32.9348 19.424 32.6308 19.776C31.9428 20.624 31.1988 21.32 30.3988 21.864C29.6148 22.408 28.7188 22.68 27.7108 22.68C26.9428 22.68 26.3748 22.384 26.0068 21.792C25.6548 21.2 25.4788 20.368 25.4788 19.296C25.2068 20.384 24.7988 21.224 24.2548 21.816C23.7108 22.392 23.1268 22.68 22.5028 22.68Z" fill="#919191"/>
<path d="M44.7728 17.208C44.9808 17.208 45.1408 17.304 45.2528 17.496C45.3808 17.688 45.4448 17.952 45.4448 18.288C45.4448 18.928 45.2928 19.424 44.9888 19.776C44.3328 20.576 43.6128 21.264 42.8288 21.84C42.0448 22.4 41.2688 22.68 40.5008 22.68C39.2848 22.68 38.3568 21.968 37.7168 20.544C37.0448 21.392 36.4528 21.96 35.9408 22.248C35.4448 22.536 34.8608 22.68 34.1888 22.68C33.2127 22.68 32.4048 22.32 31.7647 21.6C31.1407 20.864 30.8288 19.912 30.8288 18.744C30.8288 17.464 31.1007 16.28 31.6448 15.192C32.1888 14.088 32.9328 13.192 33.8768 12.504C34.8368 11.8 35.9088 11.384 37.0928 11.256C37.3968 8.152 37.9728 5.504 38.8208 3.312C39.6847 1.104 40.8128 0 42.2048 0C42.8927 0 43.4608 0.312 43.9088 0.936001C44.3728 1.56 44.6048 2.504 44.6048 3.768C44.6048 5.56 44.1648 7.656 43.2848 10.056C42.4048 12.456 41.2287 14.92 39.7567 17.448C39.8207 18.376 39.9567 19.04 40.1647 19.44C40.3887 19.84 40.6688 20.04 41.0047 20.04C41.4367 20.04 41.8768 19.848 42.3247 19.464C42.7728 19.08 43.3728 18.44 44.1248 17.544C44.3167 17.32 44.5327 17.208 44.7728 17.208ZM41.9408 2.352C41.6367 2.352 41.3328 2.896 41.0288 3.984C40.7248 5.056 40.4608 6.464 40.2368 8.208C40.0288 9.952 39.8768 11.776 39.7808 13.68C41.5728 9.776 42.4688 6.64 42.4688 4.272C42.4688 3.664 42.4128 3.192 42.3008 2.856C42.2048 2.52 42.0848 2.352 41.9408 2.352ZM35.0288 20.256C35.3328 20.256 35.6367 20.136 35.9408 19.896C36.2448 19.64 36.6287 19.176 37.0928 18.504C36.9328 17.64 36.8527 16.672 36.8527 15.6C36.8527 15.216 36.8687 14.592 36.9007 13.728C36.0207 14 35.2847 14.592 34.6927 15.504C34.1167 16.4 33.8288 17.4 33.8288 18.504C33.8288 19.672 34.2288 20.256 35.0288 20.256Z" fill="#919191"/>
<path d="M46.2099 22.68C45.2179 22.68 44.4259 22.32 43.8339 21.6C43.2419 20.88 42.9459 19.936 42.9459 18.768C42.9459 17.488 43.2419 16.28 43.8339 15.144C44.4259 13.992 45.2099 13.072 46.1859 12.384C47.1779 11.68 48.2259 11.328 49.3299 11.328C49.6819 11.328 49.9139 11.4 50.0259 11.544C50.1539 11.672 50.2579 11.912 50.3379 12.264C50.6739 12.2 51.0259 12.168 51.3939 12.168C52.1779 12.168 52.5699 12.448 52.5699 13.008C52.5699 13.344 52.4499 14.144 52.2099 15.408C51.8419 17.248 51.6579 18.528 51.6579 19.248C51.6579 19.488 51.7139 19.68 51.8259 19.824C51.9539 19.968 52.1139 20.04 52.3059 20.04C52.6099 20.04 52.9779 19.848 53.4099 19.464C53.8419 19.064 54.4259 18.424 55.1619 17.544C55.3539 17.32 55.5699 17.208 55.8099 17.208C56.0179 17.208 56.1779 17.304 56.2899 17.496C56.4179 17.688 56.4819 17.952 56.4819 18.288C56.4819 18.928 56.3299 19.424 56.0259 19.776C55.3699 20.592 54.6739 21.28 53.9379 21.84C53.2019 22.4 52.4899 22.68 51.8019 22.68C51.2739 22.68 50.7859 22.504 50.3379 22.152C49.9059 21.784 49.5779 21.288 49.3539 20.664C48.5219 22.008 47.4739 22.68 46.2099 22.68ZM47.0739 20.256C47.4259 20.256 47.7619 20.048 48.0819 19.632C48.4019 19.216 48.6339 18.664 48.7779 17.976L49.6659 13.56C48.9939 13.576 48.3699 13.832 47.7939 14.328C47.2339 14.808 46.7859 15.448 46.4499 16.248C46.1139 17.048 45.9459 17.896 45.9459 18.792C45.9459 19.288 46.0419 19.656 46.2339 19.896C46.4419 20.136 46.7219 20.256 47.0739 20.256Z" fill="#919191"/>
<path d="M67.3474 17.208C67.5554 17.208 67.7154 17.304 67.8274 17.496C67.9554 17.688 68.0194 17.952 68.0194 18.288C68.0194 18.928 67.8674 19.424 67.5634 19.776C66.8754 20.624 66.1314 21.32 65.3314 21.864C64.5474 22.408 63.6514 22.68 62.6434 22.68C61.7954 22.68 61.1074 22.376 60.5794 21.768C59.6674 22.36 58.7154 22.664 57.7234 22.68C57.5154 25.768 57.0434 28.344 56.3074 30.408C55.5714 32.488 54.4914 33.528 53.0674 33.528C52.2034 33.528 51.5634 33.216 51.1474 32.592C50.7314 31.968 50.5234 31.104 50.5234 30C50.5234 28.432 50.8834 26.6 51.6034 24.504C52.3234 22.424 53.4354 20.128 54.9394 17.616C54.9394 15.28 54.9234 13.656 54.8914 12.744C54.8754 12.28 55.0594 11.912 55.4434 11.64C55.8274 11.368 56.3074 11.232 56.8834 11.232C57.2194 11.232 57.4594 11.304 57.6034 11.448C57.7634 11.576 57.8514 11.84 57.8674 12.24C57.8674 12.64 57.8754 12.936 57.8914 13.128C58.4034 12.488 58.9074 12.032 59.4034 11.76C59.8994 11.472 60.4274 11.328 60.9874 11.328C61.8834 11.328 62.6114 11.688 63.1714 12.408C63.7474 13.128 64.0354 14.072 64.0354 15.24C64.0354 16.088 63.8994 16.912 63.6274 17.712C63.3554 18.512 62.9794 19.24 62.4994 19.896C62.8354 19.992 63.1154 20.04 63.3394 20.04C63.8674 20.04 64.3714 19.848 64.8514 19.464C65.3314 19.08 65.9474 18.44 66.6994 17.544C66.8914 17.32 67.1074 17.208 67.3474 17.208ZM57.8434 20.376C58.4194 20.248 58.9474 19.936 59.4274 19.44C59.9234 18.928 60.3154 18.304 60.6034 17.568C60.8914 16.816 61.0354 16.032 61.0354 15.216C61.0354 14.736 60.9394 14.376 60.7474 14.136C60.5554 13.88 60.2994 13.752 59.9794 13.752C59.4034 13.752 58.7074 14.36 57.8914 15.576C57.8754 16.28 57.8674 17.312 57.8674 18.672C57.8674 19.408 57.8594 19.976 57.8434 20.376ZM53.2594 31.176C53.6914 31.176 54.0514 30.232 54.3394 28.344C54.6274 26.472 54.8114 24.136 54.8914 21.336C54.2034 22.936 53.6594 24.464 53.2594 25.92C52.8594 27.376 52.6594 28.6 52.6594 29.592C52.6594 30.104 52.7234 30.496 52.8514 30.768C52.9634 31.04 53.0994 31.176 53.2594 31.176Z" fill="#919191"/>
<path d="M76.7901 17.208C76.9981 17.208 77.1581 17.304 77.2701 17.496C77.3981 17.688 77.4621 17.952 77.4621 18.288C77.4621 18.928 77.3101 19.424 77.0061 19.776C76.4141 20.496 75.5741 21.16 74.4861 21.768C73.4141 22.376 72.2621 22.68 71.0301 22.68C69.3501 22.68 68.0461 22.224 67.1181 21.312C66.1901 20.4 65.7261 19.152 65.7261 17.568C65.7261 16.464 65.9581 15.44 66.4221 14.496C66.8861 13.536 67.5261 12.776 68.3421 12.216C69.1741 11.656 70.1101 11.376 71.1501 11.376C72.0781 11.376 72.8221 11.656 73.3821 12.216C73.9421 12.76 74.2221 13.504 74.2221 14.448C74.2221 15.552 73.8221 16.504 73.0221 17.304C72.2381 18.088 70.9021 18.712 69.0141 19.176C69.4141 19.912 70.1741 20.28 71.2941 20.28C72.0141 20.28 72.8301 20.032 73.7421 19.536C74.6701 19.024 75.4701 18.36 76.1421 17.544C76.3341 17.32 76.5501 17.208 76.7901 17.208ZM70.7421 13.728C70.1501 13.728 69.6461 14.072 69.2301 14.76C68.8301 15.448 68.6301 16.28 68.6301 17.256V17.304C69.5741 17.08 70.3181 16.744 70.8621 16.296C71.4061 15.848 71.6781 15.328 71.6781 14.736C71.6781 14.432 71.5901 14.192 71.4141 14.016C71.2541 13.824 71.0301 13.728 70.7421 13.728Z" fill="#919191"/>
<path d="M79.9719 23.208C79.1399 23.208 78.4999 23.016 78.0519 22.632C77.6199 22.248 77.4039 21.816 77.4039 21.336C77.4039 20.92 77.5559 20.56 77.8599 20.256C78.1639 19.952 78.6119 19.8 79.2039 19.8C79.4119 19.8 79.6519 19.824 79.9239 19.872C80.2119 19.904 80.4279 19.928 80.5719 19.944C80.5559 19.528 80.4599 19.136 80.2839 18.768C80.1239 18.4 79.9159 18.048 79.6599 17.712C79.4039 17.36 79.1639 17.056 78.9399 16.8C78.4439 17.744 77.9479 18.528 77.4519 19.152C76.9719 19.776 76.4439 20.368 75.8679 20.928C75.5799 21.216 75.2759 21.36 74.9559 21.36C74.6999 21.36 74.4919 21.272 74.3319 21.096C74.1719 20.904 74.0919 20.672 74.0919 20.4C74.0919 20.08 74.2039 19.784 74.4279 19.512L74.7399 19.128C75.6199 18.04 76.2839 17.144 76.7319 16.44C77.0039 15.976 77.3239 15.36 77.6919 14.592C78.0599 13.808 78.4199 13 78.7719 12.168C79.0759 11.464 79.7079 11.112 80.6679 11.112C81.1159 11.112 81.4279 11.152 81.6039 11.232C81.7799 11.312 81.8679 11.44 81.8679 11.616C81.8679 11.712 81.8359 11.864 81.7719 12.072C81.7079 12.28 81.6199 12.488 81.5079 12.696C81.2199 13.272 81.0759 13.76 81.0759 14.16C81.0759 14.4 81.1559 14.664 81.3159 14.952C81.4919 15.24 81.7559 15.6 82.1079 16.032C82.6199 16.704 83.0039 17.28 83.2599 17.76C83.5319 18.224 83.6679 18.736 83.6679 19.296C83.6679 19.456 83.6519 19.68 83.6199 19.968C84.4039 19.664 85.3239 18.856 86.3799 17.544C86.5719 17.32 86.7879 17.208 87.0279 17.208C87.2359 17.208 87.3959 17.304 87.5079 17.496C87.6359 17.688 87.6999 17.952 87.6999 18.288C87.6999 18.896 87.5479 19.392 87.2439 19.776C86.4439 20.768 85.6759 21.448 84.9399 21.816C84.2199 22.168 83.3239 22.36 82.2519 22.392C81.6119 22.936 80.8519 23.208 79.9719 23.208Z" fill="#919191"/>
<path d="M89.7101 13.656C89.6781 14.456 89.6621 15.08 89.6621 15.528C89.6621 16.68 89.7181 17.584 89.8301 18.24C89.9581 18.88 90.1581 19.344 90.4301 19.632C90.7181 19.904 91.1101 20.04 91.6061 20.04C91.8621 20.04 92.1661 19.96 92.5181 19.8C92.8701 19.64 93.1901 19.432 93.4781 19.176C93.6541 19.016 93.8301 18.936 94.0061 18.936C94.1981 18.936 94.3501 19.048 94.4621 19.272C94.5901 19.48 94.6541 19.736 94.6541 20.04C94.6541 20.344 94.5901 20.64 94.4621 20.928C94.3501 21.216 94.1741 21.456 93.9341 21.648C93.1021 22.336 92.1581 22.68 91.1021 22.68C89.5821 22.68 88.4701 22.048 87.7661 20.784C87.0621 19.504 86.7101 17.84 86.7101 15.792C86.7101 15.088 86.7341 14.376 86.7821 13.656H85.8461C85.3661 13.656 85.0381 13.568 84.8621 13.392C84.7021 13.216 84.6221 12.936 84.6221 12.552C84.6221 11.656 84.9821 11.208 85.7021 11.208H87.0701C87.3421 9.448 87.7581 7.84 88.3181 6.384C88.8781 4.928 89.5501 3.768 90.3341 2.904C91.1341 2.04 91.9901 1.608 92.9021 1.608C93.5741 1.608 94.1021 1.904 94.4861 2.496C94.8701 3.088 95.0621 3.832 95.0621 4.728C95.0621 7.208 94.0221 9.368 91.9421 11.208H94.6301C94.8861 11.208 95.0701 11.264 95.1821 11.376C95.2941 11.488 95.3501 11.696 95.3501 12C95.3501 13.104 94.4461 13.656 92.6381 13.656H89.7101ZM92.2541 3.912C92.0141 3.912 91.7421 4.216 91.4381 4.824C91.1501 5.416 90.8701 6.248 90.5981 7.32C90.3421 8.376 90.1261 9.552 89.9501 10.848C90.8941 10.032 91.5981 9.12 92.0621 8.112C92.5421 7.088 92.7821 6.16 92.7821 5.328C92.7821 4.384 92.6061 3.912 92.2541 3.912Z" fill="#919191"/>
</svg>
